<svg width="221" height="18" viewBox="0 0 221 18" fill="none" xmlns="http://www.w3.org/2000/svg">
<path d="M0.129406 7.416C0.129406 6.328 0.37474 5.352 0.865406 4.488C1.35607 3.61333 2.02274 2.93067 2.86541 2.44C3.71874 1.94933 4.66274 1.704 5.69741 1.704C6.91341 1.704 7.97474 1.99733 8.88141 2.584C9.78807 3.17067 10.4494 4.00267 10.8654 5.08H9.12141C8.81207 4.408 8.36407 3.89067 7.77741 3.528C7.20141 3.16533 6.50807 2.984 5.69741 2.984C4.91874 2.984 4.22007 3.16533 3.60141 3.528C2.98274 3.89067 2.49741 4.408 2.14541 5.08C1.79341 5.74133 1.61741 6.52 1.61741 7.416C1.61741 8.30133 1.79341 9.08 2.14541 9.752C2.49741 10.4133 2.98274 10.9253 3.60141 11.288C4.22007 11.6507 4.91874 11.832 5.69741 11.832C6.50807 11.832 7.20141 11.656 7.77741 11.304C8.36407 10.9413 8.81207 10.424 9.12141 9.752H10.8654C10.4494 10.8187 9.78807 11.6453 8.88141 12.232C7.97474 12.808 6.91341 13.096 5.69741 13.096C4.66274 13.096 3.71874 12.856 2.86541 12.376C2.02274 11.8853 1.35607 11.208 0.865406 10.344C0.37474 9.48 0.129406 8.504 0.129406 7.416ZM12.4888 8.584C12.4888 7.688 12.6701 6.904 13.0328 6.232C13.3954 5.54933 13.8914 5.02133 14.5208 4.648C15.1608 4.27467 15.8701 4.088 16.6488 4.088C17.4168 4.088 18.0834 4.25333 18.6488 4.584C19.2141 4.91467 19.6354 5.33067 19.9128 5.832V4.232H21.3848V13H19.9128V11.368C19.6248 11.88 19.1928 12.3067 18.6168 12.648C18.0514 12.9787 17.3901 13.144 16.6328 13.144C15.8541 13.144 15.1501 12.952 14.5208 12.568C13.8914 12.184 13.3954 11.6453 13.0328 10.952C12.6701 10.2587 12.4888 9.46933 12.4888 8.584ZM19.9128 8.6C19.9128 7.93867 19.7794 7.36267 19.5128 6.872C19.2461 6.38133 18.8834 6.008 18.4248 5.752C17.9768 5.48533 17.4808 5.352 16.9368 5.352C16.3928 5.352 15.8968 5.48 15.4488 5.736C15.0008 5.992 14.6434 6.36533 14.3768 6.856C14.1101 7.34667 13.9768 7.92267 13.9768 8.584C13.9768 9.256 14.1101 9.84267 14.3768 10.344C14.6434 10.8347 15.0008 11.2133 15.4488 11.48C15.8968 11.736 16.3928 11.864 16.9368 11.864C17.4808 11.864 17.9768 11.736 18.4248 11.48C18.8834 11.2133 19.2461 10.8347 19.5128 10.344C19.7794 9.84267 19.9128 9.26133 19.9128 8.6ZM25.3013 5.656C25.5573 5.15467 25.9199 4.76533 26.3893 4.488C26.8693 4.21067 27.4506 4.072 28.1333 4.072V5.576H27.7493C26.1173 5.576 25.3013 6.46133 25.3013 8.232V13H23.8453V4.232H25.3013V5.656ZM30.566 2.808C30.2887 2.808 30.054 2.712 29.862 2.52C29.67 2.328 29.574 2.09333 29.574 1.816C29.574 1.53867 29.67 1.304 29.862 1.112C30.054 0.919999 30.2887 0.823999 30.566 0.823999C30.8327 0.823999 31.0567 0.919999 31.238 1.112C31.43 1.304 31.526 1.53867 31.526 1.816C31.526 2.09333 31.43 2.328 31.238 2.52C31.0567 2.712 30.8327 2.808 30.566 2.808ZM31.27 4.232V13H29.814V4.232H31.27ZM39.4732 5.864C39.7718 5.34133 40.2092 4.91467 40.7852 4.584C41.3612 4.25333 42.0172 4.088 42.7532 4.088C43.5425 4.088 44.2518 4.27467 44.8812 4.648C45.5105 5.02133 46.0065 5.54933 46.3692 6.232C46.7318 6.904 46.9132 7.688 46.9132 8.584C46.9132 9.46933 46.7318 10.2587 46.3692 10.952C46.0065 11.6453 45.5052 12.184 44.8652 12.568C44.2358 12.952 43.5318 13.144 42.7532 13.144C41.9958 13.144 41.3292 12.9787 40.7532 12.648C40.1878 12.3173 39.7612 11.896 39.4732 11.384V13H38.0172V1.16H39.4732V5.864ZM45.4252 8.584C45.4252 7.92267 45.2918 7.34667 45.0252 6.856C44.7585 6.36533 44.3958 5.992 43.9372 5.736C43.4892 5.48 42.9932 5.352 42.4492 5.352C41.9158 5.352 41.4198 5.48533 40.9612 5.752C40.5132 6.008 40.1505 6.38667 39.8732 6.888C39.6065 7.37867 39.4732 7.94933 39.4732 8.6C39.4732 9.26133 39.6065 9.84267 39.8732 10.344C40.1505 10.8347 40.5132 11.2133 40.9612 11.48C41.4198 11.736 41.9158 11.864 42.4492 11.864C42.9932 11.864 43.4892 11.736 43.9372 11.48C44.3958 11.2133 44.7585 10.8347 45.0252 10.344C45.2918 9.84267 45.4252 9.256 45.4252 8.584ZM50.2857 1.16V13H48.8297V1.16H50.2857ZM56.5912 13.144C55.7698 13.144 55.0232 12.9573 54.3512 12.584C53.6898 12.2107 53.1672 11.6827 52.7832 11C52.4098 10.3067 52.2232 9.50667 52.2232 8.6C52.2232 7.704 52.4152 6.91467 52.7992 6.232C53.1938 5.53867 53.7272 5.01067 54.3992 4.648C55.0712 4.27467 55.8232 4.088 56.6552 4.088C57.4872 4.088 58.2392 4.27467 58.9112 4.648C59.5832 5.01067 60.1112 5.53333 60.4952 6.216C60.8898 6.89867 61.0872 7.69333 61.0872 8.6C61.0872 9.50667 60.8845 10.3067 60.4792 11C60.0845 11.6827 59.5458 12.2107 58.8632 12.584C58.1805 12.9573 57.4232 13.144 56.5912 13.144ZM56.5912 11.864C57.1138 11.864 57.6045 11.7413 58.0632 11.496C58.5218 11.2507 58.8898 10.8827 59.1672 10.392C59.4552 9.90133 59.5992 9.304 59.5992 8.6C59.5992 7.896 59.4605 7.29867 59.1832 6.808C58.9058 6.31733 58.5432 5.95467 58.0952 5.72C57.6472 5.47467 57.1618 5.352 56.6392 5.352C56.1058 5.352 55.6152 5.47467 55.1672 5.72C54.7298 5.95467 54.3778 6.31733 54.1112 6.808C53.8445 7.29867 53.7112 7.896 53.7112 8.6C53.7112 9.31467 53.8392 9.91733 54.0952 10.408C54.3618 10.8987 54.7138 11.2667 55.1512 11.512C55.5885 11.7467 56.0685 11.864 56.5912 11.864ZM66.6175 4.088C67.3749 4.088 68.0362 4.25333 68.6015 4.584C69.1775 4.91467 69.6042 5.33067 69.8815 5.832V4.232H71.3535V13.192C71.3535 13.992 71.1829 14.7013 70.8415 15.32C70.5002 15.9493 70.0095 16.44 69.3695 16.792C68.7402 17.144 68.0042 17.32 67.1615 17.32C66.0095 17.32 65.0495 17.048 64.2815 16.504C63.5135 15.96 63.0602 15.2187 62.9215 14.28H64.3615C64.5215 14.8133 64.8522 15.24 65.3535 15.56C65.8549 15.8907 66.4575 16.056 67.1615 16.056C67.9615 16.056 68.6122 15.8053 69.1135 15.304C69.6255 14.8027 69.8815 14.0987 69.8815 13.192V11.352C69.5935 11.864 69.1669 12.2907 68.6015 12.632C68.0362 12.9733 67.3749 13.144 66.6175 13.144C65.8389 13.144 65.1295 12.952 64.4895 12.568C63.8602 12.184 63.3642 11.6453 63.0015 10.952C62.6389 10.2587 62.4575 9.46933 62.4575 8.584C62.4575 7.688 62.6389 6.904 63.0015 6.232C63.3642 5.54933 63.8602 5.02133 64.4895 4.648C65.1295 4.27467 65.8389 4.088 66.6175 4.088ZM69.8815 8.6C69.8815 7.93867 69.7482 7.36267 69.4815 6.872C69.2149 6.38133 68.8522 6.008 68.3935 5.752C67.9455 5.48533 67.4495 5.352 66.9055 5.352C66.3615 5.352 65.8655 5.48 65.4175 5.736C64.9695 5.992 64.6122 6.36533 64.3455 6.856C64.0789 7.34667 63.9455 7.92267 63.9455 8.584C63.9455 9.256 64.0789 9.84267 64.3455 10.344C64.6122 10.8347 64.9695 11.2133 65.4175 11.48C65.8655 11.736 66.3615 11.864 66.9055 11.864C67.4495 11.864 67.9455 11.736 68.3935 11.48C68.8522 11.2133 69.2149 10.8347 69.4815 10.344C69.7482 9.84267 69.8815 9.26133 69.8815 8.6ZM77.5357 8.584C77.5357 7.688 77.717 6.904 78.0797 6.232C78.4423 5.54933 78.9383 5.02133 79.5677 4.648C80.2077 4.27467 80.9223 4.088 81.7117 4.088C82.3943 4.088 83.029 4.248 83.6157 4.568C84.2023 4.87733 84.6503 5.288 84.9597 5.8V1.16H86.4317V13H84.9597V11.352C84.6717 11.8747 84.245 12.3067 83.6797 12.648C83.1143 12.9787 82.453 13.144 81.6957 13.144C80.917 13.144 80.2077 12.952 79.5677 12.568C78.9383 12.184 78.4423 11.6453 78.0797 10.952C77.717 10.2587 77.5357 9.46933 77.5357 8.584ZM84.9597 8.6C84.9597 7.93867 84.8263 7.36267 84.5597 6.872C84.293 6.38133 83.9303 6.008 83.4717 5.752C83.0237 5.48533 82.5277 5.352 81.9837 5.352C81.4397 5.352 80.9437 5.48 80.4957 5.736C80.0477 5.992 79.6903 6.36533 79.4237 6.856C79.157 7.34667 79.0237 7.92267 79.0237 8.584C79.0237 9.256 79.157 9.84267 79.4237 10.344C79.6903 10.8347 80.0477 11.2133 80.4957 11.48C80.9437 11.736 81.4397 11.864 81.9837 11.864C82.5277 11.864 83.0237 11.736 83.4717 11.48C83.9303 11.2133 84.293 10.8347 84.5597 10.344C84.8263 9.84267 84.9597 9.26133 84.9597 8.6ZM88.3482 8.584C88.3482 7.688 88.5295 6.904 88.8922 6.232C89.2548 5.54933 89.7508 5.02133 90.3802 4.648C91.0202 4.27467 91.7295 4.088 92.5082 4.088C93.2762 4.088 93.9428 4.25333 94.5082 4.584C95.0735 4.91467 95.4948 5.33067 95.7722 5.832V4.232H97.2442V13H95.7722V11.368C95.4842 11.88 95.0522 12.3067 94.4762 12.648C93.9108 12.9787 93.2495 13.144 92.4922 13.144C91.7135 13.144 91.0095 12.952 90.3802 12.568C89.7508 12.184 89.2548 11.6453 88.8922 10.952C88.5295 10.2587 88.3482 9.46933 88.3482 8.584ZM95.7722 8.6C95.7722 7.93867 95.6388 7.36267 95.3722 6.872C95.1055 6.38133 94.7428 6.008 94.2842 5.752C93.8362 5.48533 93.3402 5.352 92.7962 5.352C92.2522 5.352 91.7562 5.48 91.3082 5.736C90.8602 5.992 90.5028 6.36533 90.2362 6.856C89.9695 7.34667 89.8362 7.92267 89.8362 8.584C89.8362 9.256 89.9695 9.84267 90.2362 10.344C90.5028 10.8347 90.8602 11.2133 91.3082 11.48C91.7562 11.736 92.2522 11.864 92.7962 11.864C93.3402 11.864 93.8362 11.736 94.2842 11.48C94.7428 11.2133 95.1055 10.8347 95.3722 10.344C95.6388 9.84267 95.7722 9.26133 95.7722 8.6ZM103.977 4.072C105.043 4.072 105.907 4.39733 106.569 5.048C107.23 5.688 107.561 6.616 107.561 7.832V13H106.121V8.04C106.121 7.16533 105.902 6.49867 105.465 6.04C105.027 5.57067 104.43 5.336 103.673 5.336C102.905 5.336 102.291 5.576 101.833 6.056C101.385 6.536 101.161 7.23467 101.161 8.152V13H99.7047V4.232H101.161V5.48C101.449 5.032 101.838 4.68533 102.329 4.44C102.83 4.19467 103.379 4.072 103.977 4.072ZM113.661 8.584C113.661 7.688 113.842 6.904 114.205 6.232C114.567 5.54933 115.063 5.02133 115.693 4.648C116.333 4.27467 117.042 4.088 117.821 4.088C118.589 4.088 119.255 4.25333 119.821 4.584C120.386 4.91467 120.807 5.33067 121.085 5.832V4.232H122.557V13H121.085V11.368C120.797 11.88 120.365 12.3067 119.789 12.648C119.223 12.9787 118.562 13.144 117.805 13.144C117.026 13.144 116.322 12.952 115.693 12.568C115.063 12.184 114.567 11.6453 114.205 10.952C113.842 10.2587 113.661 9.46933 113.661 8.584ZM121.085 8.6C121.085 7.93867 120.951 7.36267 120.685 6.872C120.418 6.38133 120.055 6.008 119.597 5.752C119.149 5.48533 118.653 5.352 118.109 5.352C117.565 5.352 117.069 5.48 116.621 5.736C116.173 5.992 115.815 6.36533 115.549 6.856C115.282 7.34667 115.149 7.92267 115.149 8.584C115.149 9.256 115.282 9.84267 115.549 10.344C115.815 10.8347 116.173 11.2133 116.621 11.48C117.069 11.736 117.565 11.864 118.109 11.864C118.653 11.864 119.149 11.736 119.597 11.48C120.055 11.2133 120.418 10.8347 120.685 10.344C120.951 9.84267 121.085 9.26133 121.085 8.6ZM126.473 5.656C126.729 5.15467 127.092 4.76533 127.561 4.488C128.041 4.21067 128.622 4.072 129.305 4.072V5.576H128.921C127.289 5.576 126.473 6.46133 126.473 8.232V13H125.017V4.232H126.473V5.656ZM132.762 5.432V10.6C132.762 11.0267 132.853 11.3307 133.034 11.512C133.215 11.6827 133.53 11.768 133.978 11.768H135.05V13H133.738C132.927 13 132.319 12.8133 131.914 12.44C131.509 12.0667 131.306 11.4533 131.306 10.6V5.432H130.17V4.232H131.306V2.024H132.762V4.232H135.05V5.432H132.762ZM137.566 2.808C137.289 2.808 137.054 2.712 136.862 2.52C136.67 2.328 136.574 2.09333 136.574 1.816C136.574 1.53867 136.67 1.304 136.862 1.112C137.054 0.919999 137.289 0.823999 137.566 0.823999C137.833 0.823999 138.057 0.919999 138.238 1.112C138.43 1.304 138.526 1.53867 138.526 1.816C138.526 2.09333 138.43 2.328 138.238 2.52C138.057 2.712 137.833 2.808 137.566 2.808ZM138.27 4.232V13H136.814V4.232H138.27ZM145.648 13L142.208 9.128V13H140.752V1.16H142.208V8.12L145.584 4.232H147.616L143.488 8.6L147.632 13H145.648ZM156.986 8.28C156.986 8.55733 156.97 8.85067 156.938 9.16H149.93C149.983 10.024 150.277 10.7013 150.81 11.192C151.354 11.672 152.01 11.912 152.778 11.912C153.407 11.912 153.93 11.768 154.346 11.48C154.773 11.1813 155.071 10.7867 155.242 10.296H156.81C156.575 11.1387 156.106 11.8267 155.402 12.36C154.698 12.8827 153.823 13.144 152.778 13.144C151.946 13.144 151.199 12.9573 150.538 12.584C149.887 12.2107 149.375 11.6827 149.002 11C148.629 10.3067 148.442 9.50667 148.442 8.6C148.442 7.69333 148.623 6.89867 148.986 6.216C149.349 5.53333 149.855 5.01067 150.506 4.648C151.167 4.27467 151.925 4.088 152.778 4.088C153.61 4.088 154.346 4.26933 154.986 4.632C155.626 4.99467 156.117 5.496 156.458 6.136C156.81 6.76533 156.986 7.48 156.986 8.28ZM155.482 7.976C155.482 7.42133 155.359 6.94667 155.114 6.552C154.869 6.14667 154.533 5.84267 154.106 5.64C153.69 5.42667 153.226 5.32 152.714 5.32C151.978 5.32 151.349 5.55467 150.826 6.024C150.314 6.49333 150.021 7.144 149.946 7.976H155.482ZM160.364 1.16V13H158.908V1.16H160.364ZM166.567 8.584C166.567 7.688 166.748 6.904 167.111 6.232C167.474 5.54933 167.97 5.02133 168.599 4.648C169.239 4.27467 169.954 4.088 170.743 4.088C171.426 4.088 172.06 4.248 172.647 4.568C173.234 4.87733 173.682 5.288 173.991 5.8V1.16H175.463V13H173.991V11.352C173.703 11.8747 173.276 12.3067 172.711 12.648C172.146 12.9787 171.484 13.144 170.727 13.144C169.948 13.144 169.239 12.952 168.599 12.568C167.97 12.184 167.474 11.6453 167.111 10.952C166.748 10.2587 166.567 9.46933 166.567 8.584ZM173.991 8.6C173.991 7.93867 173.858 7.36267 173.591 6.872C173.324 6.38133 172.962 6.008 172.503 5.752C172.055 5.48533 171.559 5.352 171.015 5.352C170.471 5.352 169.975 5.48 169.527 5.736C169.079 5.992 168.722 6.36533 168.455 6.856C168.188 7.34667 168.055 7.92267 168.055 8.584C168.055 9.256 168.188 9.84267 168.455 10.344C168.722 10.8347 169.079 11.2133 169.527 11.48C169.975 11.736 170.471 11.864 171.015 11.864C171.559 11.864 172.055 11.736 172.503 11.48C172.962 11.2133 173.324 10.8347 173.591 10.344C173.858 9.84267 173.991 9.26133 173.991 8.6ZM178.675 2.808C178.398 2.808 178.163 2.712 177.971 2.52C177.779 2.328 177.683 2.09333 177.683 1.816C177.683 1.53867 177.779 1.304 177.971 1.112C178.163 0.919999 178.398 0.823999 178.675 0.823999C178.942 0.823999 179.166 0.919999 179.347 1.112C179.539 1.304 179.635 1.53867 179.635 1.816C179.635 2.09333 179.539 2.328 179.347 2.52C179.166 2.712 178.942 2.808 178.675 2.808ZM179.379 4.232V13H177.923V4.232H179.379ZM184.965 13.144C184.293 13.144 183.69 13.032 183.157 12.808C182.624 12.5733 182.202 12.2533 181.893 11.848C181.584 11.432 181.413 10.9573 181.381 10.424H182.885C182.928 10.8613 183.13 11.2187 183.493 11.496C183.866 11.7733 184.352 11.912 184.949 11.912C185.504 11.912 185.941 11.7893 186.261 11.544C186.581 11.2987 186.741 10.9893 186.741 10.616C186.741 10.232 186.57 9.94933 186.229 9.768C185.888 9.576 185.36 9.38933 184.645 9.208C183.994 9.03733 183.461 8.86667 183.045 8.696C182.64 8.51467 182.288 8.25333 181.989 7.912C181.701 7.56 181.557 7.10133 181.557 6.536C181.557 6.088 181.69 5.67733 181.957 5.304C182.224 4.93067 182.602 4.63733 183.093 4.424C183.584 4.2 184.144 4.088 184.773 4.088C185.744 4.088 186.528 4.33333 187.125 4.824C187.722 5.31467 188.042 5.98667 188.085 6.84H186.629C186.597 6.38133 186.41 6.01333 186.069 5.736C185.738 5.45867 185.29 5.32 184.725 5.32C184.202 5.32 183.786 5.432 183.477 5.656C183.168 5.88 183.013 6.17333 183.013 6.536C183.013 6.824 183.104 7.064 183.285 7.256C183.477 7.43733 183.712 7.58667 183.989 7.704C184.277 7.81067 184.672 7.93333 185.173 8.072C185.802 8.24267 186.314 8.41333 186.709 8.584C187.104 8.744 187.44 8.98933 187.717 9.32C188.005 9.65067 188.154 10.0827 188.165 10.616C188.165 11.096 188.032 11.528 187.765 11.912C187.498 12.296 187.12 12.6 186.629 12.824C186.149 13.0373 185.594 13.144 184.965 13.144ZM190.972 2.808C190.695 2.808 190.46 2.712 190.268 2.52C190.076 2.328 189.98 2.09333 189.98 1.816C189.98 1.53867 190.076 1.304 190.268 1.112C190.46 0.919999 190.695 0.823999 190.972 0.823999C191.239 0.823999 191.463 0.919999 191.644 1.112C191.836 1.304 191.932 1.53867 191.932 1.816C191.932 2.09333 191.836 2.328 191.644 2.52C191.463 2.712 191.239 2.808 190.972 2.808ZM191.676 4.232V13H190.22V4.232H191.676ZM198.43 4.072C199.496 4.072 200.36 4.39733 201.022 5.048C201.683 5.688 202.014 6.616 202.014 7.832V13H200.574V8.04C200.574 7.16533 200.355 6.49867 199.918 6.04C199.48 5.57067 198.883 5.336 198.126 5.336C197.358 5.336 196.744 5.576 196.286 6.056C195.838 6.536 195.614 7.23467 195.614 8.152V13H194.158V4.232H195.614V5.48C195.902 5.032 196.291 4.68533 196.782 4.44C197.283 4.19467 197.832 4.072 198.43 4.072ZM205.144 2.808C204.867 2.808 204.632 2.712 204.44 2.52C204.248 2.328 204.152 2.09333 204.152 1.816C204.152 1.53867 204.248 1.304 204.44 1.112C204.632 0.919999 204.867 0.823999 205.144 0.823999C205.411 0.823999 205.635 0.919999 205.816 1.112C206.008 1.304 206.104 1.53867 206.104 1.816C206.104 2.09333 206.008 2.328 205.816 2.52C205.635 2.712 205.411 2.808 205.144 2.808ZM205.848 4.232V13H204.392V4.232H205.848ZM213.059 13.096C212.782 13.096 212.547 13 212.355 12.808C212.163 12.616 212.067 12.3813 212.067 12.104C212.067 11.8267 212.163 11.592 212.355 11.4C212.547 11.208 212.782 11.112 213.059 11.112C213.326 11.112 213.55 11.208 213.731 11.4C213.923 11.592 214.019 11.8267 214.019 12.104C214.019 12.3813 213.923 12.616 213.731 12.808C213.55 13 213.326 13.096 213.059 13.096ZM216.419 13.096C216.141 13.096 215.907 13 215.715 12.808C215.523 12.616 215.427 12.3813 215.427 12.104C215.427 11.8267 215.523 11.592 215.715 11.4C215.907 11.208 216.141 11.112 216.419 11.112C216.685 11.112 216.909 11.208 217.091 11.4C217.283 11.592 217.379 11.8267 217.379 12.104C217.379 12.3813 217.283 12.616 217.091 12.808C216.909 13 216.685 13.096 216.419 13.096ZM219.778 13.096C219.501 13.096 219.266 13 219.074 12.808C218.882 12.616 218.786 12.3813 218.786 12.104C218.786 11.8267 218.882 11.592 219.074 11.4C219.266 11.208 219.501 11.112 219.778 11.112C220.045 11.112 220.269 11.208 220.45 11.4C220.642 11.592 220.738 11.8267 220.738 12.104C220.738 12.3813 220.642 12.616 220.45 12.808C220.269 13 220.045 13.096 219.778 13.096Z" fill="#6D6D6D"/>
</svg>
