<svg width="21" height="20" viewBox="0 0 21 20" fill="none" xmlns="http://www.w3.org/2000/svg">
<path d="M19.166 19L13.1706 13L19.166 19ZM15.169 8C15.169 8.91925 14.9881 9.82951 14.6366 10.6788C14.2851 11.5281 13.7699 12.2997 13.1203 12.9497C12.4708 13.5998 11.6997 14.1154 10.8511 14.4672C10.0025 14.8189 9.09292 15 8.17436 15C7.25581 15 6.34625 14.8189 5.49762 14.4672C4.64898 14.1154 3.8779 13.5998 3.22838 12.9497C2.57886 12.2997 2.06364 11.5281 1.71213 10.6788C1.36061 9.82951 1.17969 8.91925 1.17969 8C1.17969 6.14348 1.91662 4.36301 3.22838 3.05025C4.54014 1.7375 6.31926 1 8.17436 1C10.0295 1 11.8086 1.7375 13.1203 3.05025C14.4321 4.36301 15.169 6.14348 15.169 8Z" stroke="#6D6D6D" stroke-width="2" stroke-linecap="round" stroke-linejoin="round"/>
</svg>
